<svg width="70" height="91" viewBox="0 0 70 91" fill="none" xmlns="http://www.w3.org/2000/svg">
<rect width="70" height="70" rx="20" fill="#ECF0F1"/>
<g clip-path="url(#clip0_8_889)">
<path d="M43.1249 31.8746H25.6244C24.5906 31.8746 23.7494 32.7158 23.7494 33.7496V34.9996C23.7494 39.4597 26.2132 43.5048 30.1783 45.5561C30.4845 45.7136 30.862 45.5949 31.0208 45.2874C31.1783 44.9811 31.0595 44.6036 30.752 44.4448C27.2045 42.6098 24.9994 38.991 24.9994 34.9996V33.7496C24.9994 33.4046 25.2794 33.1245 25.6244 33.1245H43.1249C43.4699 33.1245 43.7499 33.4046 43.7499 33.7496V34.9996C43.7499 38.9909 41.5448 42.6097 37.996 44.4435C37.6885 44.6023 37.5698 44.9798 37.7273 45.2861C37.8385 45.5011 38.0573 45.6248 38.2835 45.6248C38.381 45.6248 38.4785 45.6023 38.5697 45.5548C42.5361 43.5047 44.9999 39.4609 44.9999 34.9995V33.7495C44.9999 32.7158 44.1586 31.8746 43.1249 31.8746Z" fill="black"/>
<path d="M48.7037 44.7599C48.6062 44.5261 48.3787 44.3736 48.1262 44.3736H20.6256C20.3731 44.3736 20.1456 44.5261 20.0481 44.7599C19.9506 44.9936 20.0043 45.2624 20.1831 45.4411L21.5844 46.8437C22.4119 47.6699 23.5094 48.125 24.6782 48.125H44.0711C45.2399 48.125 46.3387 47.67 47.1675 46.8437L48.5688 45.4411C48.7475 45.2624 48.8012 44.9936 48.7037 44.7599ZM46.2824 45.9599C45.6925 46.5499 44.9062 46.8749 44.0724 46.8749H24.6782C23.8444 46.8749 23.0582 46.5499 22.4682 45.9599L22.1332 45.6249H46.6174L46.2824 45.9599Z" fill="black"/>
<path d="M48.7912 34.8259C47.1074 33.7433 44.4173 34.9184 44.116 35.0546C43.8023 35.1984 43.6623 35.5684 43.806 35.8834C43.9497 36.1984 44.3185 36.3371 44.6348 36.1934C45.2373 35.9197 47.1698 35.2709 48.1149 35.8796C48.5412 36.1534 48.7499 36.6847 48.7499 37.4997C48.7499 40.0022 43.7022 41.5148 41.7534 41.8873L41.3109 41.9748C40.9722 42.041 40.7521 42.3697 40.8184 42.7085C40.8772 43.006 41.1384 43.2123 41.4309 43.2123C41.4709 43.2123 41.5109 43.2085 41.5521 43.1998L41.9909 43.1135C42.3184 43.051 49.9999 41.5448 49.9999 37.4997C49.9999 36.2422 49.5925 35.3434 48.7912 34.8259Z" fill="black"/>
<path d="M39.241 26.6394C40.2573 25.3693 40.2573 23.3806 39.241 22.1105C39.0247 21.8405 38.6335 21.7955 38.3622 22.013C38.0922 22.2293 38.0485 22.6218 38.2647 22.8918C38.9085 23.6955 38.9085 25.0543 38.2635 25.8606C37.246 27.1307 37.246 29.1194 38.2635 30.3895C38.3873 30.5445 38.5685 30.6245 38.7522 30.6245C38.8885 30.6245 39.0272 30.5795 39.1423 30.487C39.4123 30.2707 39.456 29.877 39.2398 29.6082C38.5947 28.8044 38.5947 27.4457 39.241 26.6394Z" fill="black"/>
<path d="M35.4859 26.6394C36.5034 25.3694 36.5034 23.3806 35.4859 22.1106C35.2709 21.8405 34.8772 21.7968 34.6072 22.013C34.3371 22.2293 34.2934 22.6231 34.5097 22.8918C35.1547 23.6955 35.1547 25.0544 34.5084 25.8606C33.4921 27.1307 33.4921 29.1195 34.5084 30.3895C34.6322 30.5445 34.8134 30.6245 34.9972 30.6245C35.1334 30.6245 35.2709 30.5795 35.3872 30.487C35.6572 30.2707 35.7009 29.8783 35.4847 29.6083C34.8409 28.8045 34.8409 27.4457 35.4859 26.6394Z" fill="black"/>
<path d="M31.7409 26.6406C32.7571 25.3706 32.7571 23.3818 31.7409 22.1117C31.5259 21.8417 31.1333 21.7967 30.8621 22.0142C30.5933 22.2292 30.5496 22.623 30.7646 22.8918C31.4084 23.6955 31.4084 25.0543 30.7634 25.8606C29.7459 27.1306 29.7459 29.1194 30.7634 30.3895C30.8871 30.5445 31.0684 30.6245 31.2521 30.6245C31.3884 30.6245 31.5271 30.5795 31.6421 30.4883C31.9121 30.272 31.9559 29.8782 31.7396 29.6095C31.0946 28.8044 31.0946 27.4469 31.7409 26.6406Z" fill="black"/>
</g>
<path d="M21.1771 88V78.0469H23.9867C24.8526 78.0469 25.6182 78.2383 26.2836 78.6211C26.949 79.0039 27.4617 79.5485 27.8217 80.2549C28.1863 80.9613 28.3708 81.7725 28.3754 82.6885V83.3242C28.3754 84.263 28.1931 85.0856 27.8285 85.792C27.4685 86.4984 26.9512 87.0407 26.2768 87.4189C25.6068 87.7972 24.8253 87.9909 23.932 88H21.1771ZM22.4896 79.127V86.9268H23.8705C24.8822 86.9268 25.6684 86.6123 26.2289 85.9834C26.794 85.3545 27.0766 84.459 27.0766 83.2969V82.7158C27.0766 81.5856 26.81 80.7083 26.2768 80.084C25.7481 79.4551 24.9962 79.1361 24.0209 79.127H22.4896ZM33.4416 81.7383C33.2502 81.7064 33.0428 81.6904 32.8195 81.6904C31.9901 81.6904 31.4273 82.0436 31.1311 82.75V88H29.8664V80.6035H31.0969L31.1174 81.458C31.5321 80.7972 32.12 80.4668 32.8811 80.4668C33.1271 80.4668 33.314 80.4987 33.4416 80.5625V81.7383ZM35.6846 88H34.4199V80.6035H35.6846V88ZM34.3174 78.6416C34.3174 78.4365 34.3789 78.2633 34.502 78.1221C34.6296 77.9808 34.8164 77.9102 35.0625 77.9102C35.3086 77.9102 35.4954 77.9808 35.623 78.1221C35.7507 78.2633 35.8145 78.4365 35.8145 78.6416C35.8145 78.8467 35.7507 79.0176 35.623 79.1543C35.4954 79.291 35.3086 79.3594 35.0625 79.3594C34.8164 79.3594 34.6296 79.291 34.502 79.1543C34.3789 79.0176 34.3174 78.8467 34.3174 78.6416ZM38.6111 80.6035L38.6521 81.5332C39.2173 80.8223 39.9555 80.4668 40.867 80.4668C42.4301 80.4668 43.2186 81.3486 43.2322 83.1123V88H41.9676V83.1055C41.963 82.5723 41.84 82.1781 41.5984 81.9229C41.3615 81.6676 40.99 81.54 40.4842 81.54C40.074 81.54 39.714 81.6494 39.4041 81.8682C39.0942 82.0869 38.8527 82.374 38.6795 82.7295V88H37.4148V80.6035H38.6111ZM46.9039 84.5752L46.1109 85.4023V88H44.8463V77.5H46.1109V83.8506L46.7877 83.0371L49.0914 80.6035H50.6295L47.7516 83.6934L50.9645 88H49.4811L46.9039 84.5752Z" fill="black"/>
<defs>
<clipPath id="clip0_8_889">
<rect width="30" height="30" fill="white" transform="translate(20 20)"/>
</clipPath>
</defs>
</svg>
