<svg width="70" height="91" viewBox="0 0 70 91" fill="none" xmlns="http://www.w3.org/2000/svg">
<rect width="70" height="70" rx="20" fill="#ECF0F1"/>
<g clip-path="url(#clip0_8_911)">
<path d="M49.9905 25.458C49.9913 25.4407 49.9912 25.4235 49.9902 25.4062C49.9843 25.388 49.9773 25.3702 49.9693 25.3529C49.9407 25.2674 49.8914 25.1902 49.8258 25.1283C49.8013 25.1081 49.7749 25.0902 49.747 25.0751C49.7222 25.0591 49.696 25.0454 49.6686 25.0341C49.6345 25.0233 49.5993 25.0162 49.5637 25.013C49.5425 25.0071 49.5208 25.0028 49.499 24.9999C49.4937 24.9999 49.4893 25.0028 49.484 25.0029C49.4784 25.003 49.4734 25.0005 49.4677 25.0008L31.991 26.092C31.9252 24.5634 30.9377 23.228 29.4954 22.7173C29.5633 22.382 29.7063 22.0665 29.9136 21.7944C30.4473 21.2197 31.2181 20.926 31.999 21C32.2752 21 32.499 20.7761 32.499 20.5C32.499 20.2238 32.2752 20 31.9991 20C30.7154 20 29.7505 20.394 29.1314 21.1709C28.826 21.5654 28.6151 22.0247 28.5146 22.5134C28.4265 22.5072 28.3387 22.4999 28.249 22.4999C26.3981 22.5032 24.826 23.8555 24.5463 25.6852C24.0513 25.2443 23.4119 25.0005 22.749 25C21.5192 25.0033 20.4416 25.824 20.1112 27.0087C20.0407 27.094 20.0011 27.2007 19.999 27.3115V44.0658C19.9991 47.3378 22.9149 49.9998 26.4991 49.9998C26.529 49.9967 26.5584 49.9907 26.5871 49.9821C26.6733 50.0077 26.7654 50.0057 26.8505 49.9764L49.6504 42.7313C49.658 42.7289 49.663 42.7229 49.6705 42.7202C49.7031 42.7065 49.7342 42.6893 49.763 42.6688C49.8742 42.6102 49.9521 42.5034 49.9738 42.3796C49.9844 42.3464 49.9913 42.3121 49.9945 42.2773C49.9948 42.2694 49.999 42.2627 49.999 42.2547V25.5C49.999 25.485 49.9918 25.4725 49.9905 25.458ZM25.7619 25.0721C26.2161 24.1102 27.1854 23.4975 28.2492 23.5C28.3026 23.5 28.3549 23.5049 28.4075 23.508C28.4035 23.8785 28.4385 24.2485 28.5118 24.6118C28.5639 24.8387 28.7658 24.9997 28.9986 25C29.0364 25.0001 29.0741 24.9958 29.1109 24.9872C29.3801 24.9255 29.5482 24.6573 29.4865 24.3882C29.4865 24.3882 29.4865 24.3882 29.4865 24.3881C29.4473 24.1816 29.4232 23.9726 29.4143 23.7626C30.7845 24.4096 31.3708 26.0449 30.7238 27.4151C30.0768 28.7853 28.4415 29.3715 27.0713 28.7246C25.7011 28.0776 25.1148 26.4423 25.7619 25.0721ZM25.9991 48.9798C23.1998 48.7523 20.9992 46.6351 20.9992 44.0658V30.5585C22.1317 32.2455 23.9735 33.322 25.9991 33.4809V48.9798ZM26.4308 32.4966C23.5613 32.4613 21.1436 30.2294 21.0119 27.5402C21.0182 27.4959 21.0243 27.4511 21.0346 27.4028C21.1998 26.587 21.9168 26.0004 22.7492 26C23.5018 26.0016 24.1695 26.4828 24.4091 27.1963C24.4588 27.3415 24.5735 27.4551 24.7192 27.5034C25.4087 29.4534 27.5484 30.4752 29.4983 29.7857C30.7046 29.3592 31.6097 28.3463 31.8983 27.0998L45.6031 26.2441L34.3441 29.9145C34.3369 29.9169 34.3323 29.9226 34.3253 29.9252C34.2931 29.939 34.2625 29.9564 34.2341 29.9769C34.1227 30.035 34.0451 30.1419 34.0242 30.2657C34.0135 30.2994 34.0064 30.3342 34.0033 30.3695C34.003 30.3768 33.9992 30.3829 33.9992 30.3902V33.0001C33.9992 33.2762 33.7753 33.5 33.4992 33.5C33.223 33.5 32.9992 33.2762 32.9992 33.0001V31.0449C32.9992 30.7687 32.7753 30.5449 32.4992 30.5449C32.2231 30.5449 31.9992 30.7688 31.9992 31.0449V43.4999C31.9992 43.776 31.7754 43.9999 31.4993 43.9999C31.2231 43.9999 30.9993 43.776 30.9993 43.4999V31.6948C30.9868 31.6438 30.9785 31.5918 30.9746 31.5395C30.9723 31.5325 30.9668 31.5279 30.9642 31.521C30.9505 31.4893 30.9335 31.4592 30.9135 31.4311C30.8881 31.3761 30.846 31.3306 30.7933 31.301C30.749 31.258 30.6921 31.2301 30.631 31.2214C30.5946 31.2094 30.5569 31.2018 30.5187 31.1987C30.5119 31.1984 30.5062 31.1948 30.4993 31.1948C30.4733 31.1978 30.4476 31.203 30.4224 31.2103C30.3962 31.2113 30.37 31.2144 30.3443 31.2197L26.4308 32.4966ZM26.9991 41.311V39.3624L29.9991 38.3836V40.3321L26.9991 41.311ZM29.9991 41.3835V43.3332L26.9991 44.3108V42.3624L29.9991 41.3835ZM26.9991 38.311V33.3625L29.9991 32.3836V37.3322L26.9991 38.311ZM48.999 41.889L26.9991 48.8798V45.363L30.2389 44.3072C30.6834 45.0046 31.6091 45.2096 32.3065 44.7651C32.7386 44.4897 33 44.0123 32.9991 43.4998V43.4078L48.999 38.1892V41.889ZM48.999 37.1368L32.9991 42.3556V40.4079L48.999 35.1892V37.1368ZM48.999 34.1368L32.9991 39.3556V37.4079L48.999 32.1892V34.1368ZM48.999 31.1368L32.9991 36.3556V34.4078C33.1592 34.4671 33.3284 34.4982 33.4991 34.4999C34.3271 34.4991 34.9982 33.828 34.9991 32.9999V30.7532L48.999 26.189V31.1368H48.999Z" fill="black"/>
</g>
<path d="M28.868 84.8418C28.7449 85.8945 28.3553 86.708 27.699 87.2822C27.0473 87.8519 26.1792 88.1367 25.0945 88.1367C23.9187 88.1367 22.9754 87.7152 22.2645 86.8721C21.5581 86.029 21.2049 84.901 21.2049 83.4883V82.5312C21.2049 81.6061 21.3689 80.7926 21.6971 80.0908C22.0298 79.389 22.4992 78.8512 23.1053 78.4775C23.7114 78.0993 24.4132 77.9102 25.2107 77.9102C26.268 77.9102 27.1157 78.2064 27.7537 78.7988C28.3917 79.3867 28.7632 80.2025 28.868 81.2461H27.5486C27.4347 80.4531 27.1863 79.8789 26.8035 79.5234C26.4253 79.168 25.8943 78.9902 25.2107 78.9902C24.3722 78.9902 23.7137 79.3001 23.2352 79.9199C22.7612 80.5397 22.5242 81.4215 22.5242 82.5654V83.5293C22.5242 84.6094 22.7498 85.4684 23.201 86.1064C23.6521 86.7445 24.2833 87.0635 25.0945 87.0635C25.8237 87.0635 26.382 86.8994 26.7693 86.5713C27.1613 86.2386 27.421 85.6621 27.5486 84.8418H28.868ZM34.734 88C34.6611 87.8542 34.6018 87.5944 34.5562 87.2207C33.9684 87.8314 33.2665 88.1367 32.4508 88.1367C31.7216 88.1367 31.1223 87.9316 30.6529 87.5215C30.1881 87.1068 29.9557 86.5827 29.9557 85.9492C29.9557 85.179 30.2473 84.582 30.8307 84.1582C31.4186 83.7298 32.2434 83.5156 33.3053 83.5156H34.5357V82.9346C34.5357 82.4925 34.4036 82.1416 34.1393 81.8818C33.8749 81.6175 33.4853 81.4854 32.9703 81.4854C32.5191 81.4854 32.1409 81.5993 31.8355 81.8271C31.5302 82.055 31.3775 82.3307 31.3775 82.6543H30.1061C30.1061 82.2852 30.2359 81.9297 30.4957 81.5879C30.76 81.2415 31.1155 80.9681 31.5621 80.7676C32.0133 80.5671 32.5077 80.4668 33.0455 80.4668C33.8977 80.4668 34.5654 80.681 35.0484 81.1094C35.5315 81.5332 35.7822 82.1188 35.8004 82.8662V86.2705C35.8004 86.9495 35.887 87.4896 36.0602 87.8906V88H34.734ZM32.6354 87.0361C33.0318 87.0361 33.4078 86.9336 33.7633 86.7285C34.1187 86.5234 34.3762 86.2568 34.5357 85.9287V84.4111H33.5445C31.9951 84.4111 31.2203 84.8646 31.2203 85.7715C31.2203 86.168 31.3525 86.4779 31.6168 86.7012C31.8811 86.9245 32.2206 87.0361 32.6354 87.0361ZM39.5473 84.5752L38.7543 85.4023V88H37.4896V77.5H38.7543V83.8506L39.4311 83.0371L41.7348 80.6035H43.2729L40.3949 83.6934L43.6078 88H42.1244L39.5473 84.5752ZM47.2111 88.1367C46.2085 88.1367 45.3928 87.8086 44.7639 87.1523C44.135 86.4915 43.8205 85.6097 43.8205 84.5068V84.2744C43.8205 83.5407 43.9595 82.8867 44.2375 82.3125C44.5201 81.7337 44.912 81.2826 45.4133 80.959C45.9191 80.6309 46.466 80.4668 47.0539 80.4668C48.0155 80.4668 48.7629 80.7835 49.2961 81.417C49.8293 82.0505 50.0959 82.9574 50.0959 84.1377V84.6641H45.0852C45.1034 85.3932 45.3153 85.9834 45.7209 86.4346C46.1311 86.8812 46.6506 87.1045 47.2795 87.1045C47.7261 87.1045 48.1044 87.0133 48.4143 86.8311C48.7242 86.6488 48.9953 86.4072 49.2277 86.1064L50.0002 86.708C49.3804 87.6605 48.4507 88.1367 47.2111 88.1367ZM47.0539 81.5059C46.5435 81.5059 46.1151 81.6927 45.7687 82.0664C45.4224 82.4355 45.2082 82.9551 45.1262 83.625H48.8312V83.5293C48.7948 82.8867 48.6216 82.39 48.3117 82.0391C48.0018 81.6836 47.5826 81.5059 47.0539 81.5059Z" fill="black"/>
<defs>
<clipPath id="clip0_8_911">
<rect width="30" height="30" fill="white" transform="translate(20 20)"/>
</clipPath>
</defs>
</svg>
