<svg width="70" height="91" viewBox="0 0 70 91" fill="none" xmlns="http://www.w3.org/2000/svg">
<rect width="70" height="70" rx="20" fill="#D35400"/>
<path d="M37.2659 23.9232C39.1901 24.2212 40.9749 24.8983 42.4274 25.8808C43.8321 26.8312 44.8648 28.0218 45.4141 29.3244C45.5084 29.5484 45.7256 29.683 45.9543 29.683C46.0302 29.683 46.1074 29.6682 46.1818 29.6368C46.48 29.5109 46.6196 29.1674 46.494 28.8691C45.8563 27.3569 44.6771 25.988 43.0841 24.9102C41.4892 23.8312 39.5394 23.0894 37.4451 22.7651C37.1258 22.7156 36.826 22.9347 36.7766 23.2547C36.7269 23.5742 36.9459 23.8736 37.2659 23.9232Z" fill="white"/>
<path d="M25.88 28.3187C25.9727 28.5412 26.2087 28.6911 26.4494 28.6797C26.6872 28.6682 26.9056 28.5 26.9779 28.2732C27.0512 28.0436 26.9692 27.7756 26.777 27.6293C26.5781 27.4783 26.2858 27.4728 26.0816 27.617C25.8644 27.7703 25.7795 28.0736 25.88 28.3187Z" fill="white"/>
<path d="M28.703 26.1368C28.7966 26.3618 29.0367 26.5133 29.2805 26.4977C29.5155 26.4824 29.7293 26.3148 29.8014 26.0908C29.8749 25.8628 29.7925 25.5973 29.6034 25.4504C29.4036 25.2954 29.1063 25.289 28.9012 25.4375C28.6879 25.592 28.6014 25.893 28.703 26.1368Z" fill="white"/>
<path d="M31.7357 28.3187C31.8283 28.5412 32.0646 28.6911 32.3053 28.6797C32.5431 28.6682 32.762 28.5 32.8343 28.2732C32.9075 28.0434 32.8251 27.7754 32.6326 27.6293C32.4337 27.4783 32.1417 27.4728 31.9373 27.617C31.7203 27.7703 31.6352 28.0736 31.7357 28.3187Z" fill="white"/>
<path d="M50 38.7463C50 37.4561 49.171 36.3566 48.0181 35.9503V34.4841C48.2035 34.4157 48.382 34.3255 48.5498 34.2129C49.217 33.7645 49.5997 33.0568 49.5997 32.2706C49.5997 31.7789 49.4477 31.3136 49.1653 30.9222C49.3081 30.5837 49.3511 30.2079 49.2818 29.8376C48.7801 27.1542 47.057 24.6978 44.4302 22.9205C41.8138 21.1506 38.4648 20.1758 35 20.1758C31.5352 20.1758 28.1862 21.1506 25.5698 22.9205C22.943 24.6976 21.2199 27.1542 20.7182 29.8376C20.6313 30.302 20.7207 30.7748 20.9629 31.172C20.7805 31.5066 20.6855 31.8792 20.6855 32.2706C20.6855 33.0568 21.0682 33.765 21.7356 34.2131C21.8153 34.2667 21.8979 34.3145 21.9819 34.3582V35.9503C20.829 36.3566 20 37.4561 20 38.7463V38.8654C20 39.72 20.3642 40.4909 20.9448 41.0324C20.7755 41.3583 20.6855 41.7209 20.6855 42.0942C20.6855 42.6808 20.8988 43.2235 21.284 43.6476V45.762C21.284 48.0209 23.1217 49.8588 25.3808 49.8588H44.6192C46.8783 49.8588 48.716 48.0209 48.716 45.762V43.9133C49.2797 43.4641 49.5997 42.812 49.5997 42.094C49.5997 41.6438 49.4729 41.2176 49.236 40.8491C49.7105 40.3236 50 39.6278 50 38.8654V38.7463ZM48.8281 38.7463V38.8654C48.8281 39.4703 48.5265 40.0059 48.0659 40.3307C47.7659 40.5421 47.4031 40.6575 47.036 40.6575H37.9501L41.6866 36.9542H47.0358C48.0241 36.9542 48.8281 37.7583 48.8281 38.7463ZM28.8808 36.9542L28.9738 37.0473L29.5748 37.6482L28.3167 38.9066L26.3643 36.9542H28.8808ZM34.4131 40.8292L30.8183 37.2346C30.8183 37.2343 30.8181 37.2341 30.8179 37.2339L30.5382 36.9542H40.0194L36.1034 40.8269C36.1032 40.8271 36.103 40.8273 36.1028 40.8278C36.1023 40.8282 36.1016 40.8287 36.1012 40.8292L35.257 41.6733L34.4131 40.8292ZM21.87 30.0527C22.3138 27.6797 23.861 25.4913 26.2265 23.891C28.651 22.2508 31.7668 21.3477 35 21.3477C38.2332 21.3477 41.349 22.2508 43.7735 23.891C46.139 25.4913 47.686 27.6797 48.13 30.0527C48.2122 30.4929 47.8606 30.9133 47.4139 30.9133H22.5861C22.1387 30.9133 21.7878 30.4929 21.87 30.0527ZM21.9006 31.9577C22.1183 32.0419 22.3529 32.0852 22.5861 32.0852H47.4139C47.7373 32.0852 48.0625 32.0014 48.3445 31.8428C48.3997 31.9783 48.4278 32.1241 48.4278 32.2704C48.4278 32.6597 48.2342 33.0131 47.8963 33.2399C47.551 33.472 47.1111 33.5276 46.716 33.4026C46.5208 33.3408 46.3365 33.2612 46.1351 33.2182C45.9172 33.1715 45.6943 33.1509 45.4716 33.1509C44.4249 33.1509 43.8632 33.5473 43.4121 33.8657C43.0161 34.1454 42.7035 34.3662 42.0287 34.3662C41.354 34.3662 41.0413 34.1454 40.6454 33.8659C40.1942 33.5471 39.6328 33.1509 38.5859 33.1509C37.5392 33.1509 36.9778 33.5473 36.5266 33.8659C36.1307 34.1454 35.818 34.3662 35.1433 34.3662C34.4685 34.3662 34.1557 34.1454 33.7597 33.8657C33.3086 33.5471 32.7471 33.1509 31.7004 33.1509C30.6538 33.1509 30.0921 33.5473 29.641 33.8657C29.245 34.1454 28.9321 34.3662 28.2576 34.3662C27.5826 34.3662 27.27 34.1454 26.8738 33.8657C26.4227 33.5471 25.8612 33.1509 24.8143 33.1509C24.4003 33.1509 24.0269 33.2211 23.6729 33.3656C23.2547 33.5363 22.7654 33.493 22.3891 33.2401C22.0512 33.0133 21.8576 32.6599 21.8576 32.2706C21.8574 32.1628 21.872 32.058 21.9006 31.9577ZM23.2703 34.6377C23.5777 34.6228 23.866 34.5452 24.1521 34.4363C24.4376 34.3273 24.7488 34.3058 25.0512 34.3328C25.5685 34.3788 25.8514 34.5786 26.1979 34.8231C26.649 35.1417 27.2105 35.5381 28.2574 35.5381C29.304 35.5381 29.8655 35.1417 30.3166 34.8231C30.7126 34.5436 31.0255 34.3227 31.7002 34.3227C32.375 34.3227 32.6876 34.5436 33.0836 34.8231C33.5347 35.1417 34.0964 35.5381 35.1431 35.5381C36.1897 35.5381 36.7512 35.1417 37.2023 34.8231C37.5983 34.5436 37.9111 34.3227 38.5857 34.3227C39.2604 34.3227 39.5733 34.5436 39.9693 34.8231C40.4204 35.1417 40.9818 35.5381 42.0285 35.5381C43.0752 35.5381 43.6366 35.1417 44.0878 34.8231C44.4839 34.5436 44.7966 34.3227 45.4713 34.3227C45.7108 34.3227 45.9458 34.3626 46.169 34.4502C46.3866 34.5358 46.6132 34.5974 46.846 34.6246V35.7825H41.4455C41.4453 35.7825 41.4453 35.7825 41.4451 35.7825H41.4449H29.1253C29.1248 35.7825 29.1241 35.7825 29.1237 35.7825C29.123 35.7825 29.1223 35.7825 29.1219 35.7825H23.1538V34.6409C23.1927 34.6407 23.2314 34.6395 23.2703 34.6377ZM21.1719 38.7463C21.1719 37.7583 21.9759 36.9542 22.964 36.9542H24.7072L27.9024 40.1496C28.0122 40.2595 28.1612 40.321 28.3167 40.321C28.4721 40.321 28.6211 40.2595 28.7309 40.1496L30.4036 38.4769L32.5842 40.6575H22.964C22.6543 40.6575 22.3465 40.5756 22.0778 40.422C21.5372 40.1132 21.1719 39.5314 21.1719 38.8654V38.7463ZM21.9542 41.652C22.2767 41.769 22.6209 41.8294 22.964 41.8294H33.756L34.8428 42.9161C35.0675 43.1411 35.444 43.1416 35.6695 42.9179L36.7679 41.8294H47.0358C47.3663 41.8294 47.6963 41.7733 48.0085 41.6653C48.074 41.6426 48.1408 41.6197 48.2024 41.5881C48.2223 41.5778 48.2511 41.5549 48.2747 41.5565C48.3072 41.5588 48.3157 41.6003 48.3273 41.6264C48.3907 41.7662 48.4246 41.9193 48.4274 42.0729C48.4372 42.6257 48.0392 43.0882 47.5194 43.2388C47.2216 43.3253 46.8991 43.3061 46.6121 43.1889C46.2587 43.0445 45.8854 42.9742 45.4713 42.9742C44.4247 42.9742 43.8632 43.3707 43.4121 43.6893C43.0159 43.969 42.7032 44.1898 42.0285 44.1898C41.354 44.1898 41.0411 43.969 40.6451 43.6893C40.194 43.3707 39.6326 42.9742 38.5859 42.9742C37.5392 42.9742 36.9778 43.3707 36.5264 43.6893C36.1304 43.969 35.8178 44.1898 35.1431 44.1898C34.4683 44.1898 34.1557 43.969 33.7595 43.6893C33.3083 43.3707 32.7469 42.9742 31.7002 42.9742C30.6535 42.9742 30.0921 43.3707 29.6407 43.6893C29.2448 43.969 28.9321 44.1898 28.2574 44.1898C27.5824 44.1898 27.2697 43.9687 26.8738 43.6893C26.4224 43.3707 25.861 42.9742 24.8141 42.9742C24.4 42.9742 24.0267 43.0445 23.6729 43.1892C23.2904 43.3453 22.8445 43.3247 22.4836 43.1214C22.1643 42.9417 21.9265 42.6337 21.8707 42.2677C21.8539 42.1594 21.853 42.0486 21.8674 41.9399C21.8716 41.9083 21.9254 41.6415 21.9542 41.652ZM47.5441 45.762C47.5441 47.3747 46.2319 48.6869 44.6192 48.6869H25.3808C23.7681 48.6869 22.4559 47.3747 22.4559 45.762V44.3723C22.937 44.5087 23.4563 44.4991 23.9512 44.3345C23.9613 44.3311 23.9713 44.3276 23.9812 44.3244C24.0263 44.3086 24.0714 44.2924 24.1158 44.2741C24.3263 44.188 24.5547 44.1463 24.8141 44.1463C25.489 44.1463 25.8017 44.367 26.1977 44.6467C26.649 44.9653 27.2105 45.3617 28.2574 45.3617C29.304 45.3617 29.8655 44.9653 30.3166 44.6467C30.7126 44.367 31.0255 44.1463 31.7 44.1463C32.3747 44.1463 32.6876 44.367 33.0836 44.6467C33.5347 44.9653 34.0961 45.3617 35.1431 45.3617C36.1897 45.3617 36.7512 44.9653 37.2023 44.6467C37.5983 44.367 37.9111 44.1463 38.5857 44.1463C39.2604 44.1463 39.5733 44.367 39.969 44.6467C40.4202 44.9653 40.9818 45.3617 42.0285 45.3617C43.0752 45.3617 43.6366 44.9653 44.0878 44.6467C44.4837 44.367 44.7966 44.1463 45.4713 44.1463C45.646 44.1463 45.8211 44.1658 45.9898 44.2127C46.1502 44.2574 46.3017 44.3279 46.4622 44.3732C46.8105 44.4714 47.1866 44.4922 47.5439 44.4341V45.762H47.5441Z" fill="white"/>
<path d="M33.2368 26.1368C33.3295 26.3593 33.5657 26.5104 33.8067 26.498C34.0445 26.4859 34.2627 26.3183 34.3352 26.0917C34.4089 25.8619 34.3263 25.5944 34.1343 25.4477C33.9358 25.2959 33.6431 25.2902 33.4391 25.4351C33.2228 25.5884 33.1345 25.8917 33.2368 26.1368Z" fill="white"/>
<path d="M35.8801 28.7195C35.9728 28.9422 36.2087 29.0919 36.4495 29.0804C36.6876 29.069 36.9052 28.9005 36.9782 28.6742C37.0522 28.4446 36.9693 28.1763 36.777 28.0301C36.5781 27.8788 36.2859 27.8738 36.0817 28.0177C35.8647 28.1711 35.7796 28.4743 35.8801 28.7195Z" fill="white"/>
<path d="M34.3841 23.4584C34.5926 23.5974 34.8858 23.5836 35.0797 23.4248C35.2692 23.2696 35.345 22.9947 35.2575 22.7654C35.1724 22.5427 34.9467 22.3841 34.7075 22.3852C34.4709 22.3866 34.2459 22.542 34.1621 22.7635C34.0685 23.0116 34.1642 23.3106 34.3841 23.4584Z" fill="white"/>
<path d="M26.865 83.6045H22.6883V88H21.3758V78.0469H27.5418V79.127H22.6883V82.5312H26.865V83.6045ZM28.1305 84.2334C28.1305 83.5088 28.2717 82.8571 28.5543 82.2783C28.8414 81.6995 29.2379 81.2529 29.7437 80.9385C30.2542 80.624 30.8352 80.4668 31.4869 80.4668C32.4941 80.4668 33.3076 80.8154 33.9273 81.5127C34.5517 82.21 34.8639 83.1374 34.8639 84.2949V84.3838C34.8639 85.1038 34.7249 85.751 34.4469 86.3252C34.1734 86.8949 33.7792 87.3392 33.2643 87.6582C32.7538 87.9772 32.166 88.1367 31.5006 88.1367C30.498 88.1367 29.6845 87.7881 29.0602 87.0908C28.4404 86.3936 28.1305 85.4707 28.1305 84.3223V84.2334ZM29.402 84.3838C29.402 85.2041 29.5911 85.8626 29.9693 86.3594C30.3521 86.8561 30.8626 87.1045 31.5006 87.1045C32.1432 87.1045 32.6536 86.8538 33.0318 86.3525C33.4101 85.8467 33.5992 85.1403 33.5992 84.2334C33.5992 83.4222 33.4055 82.766 33.0182 82.2646C32.6354 81.7588 32.1249 81.5059 31.4869 81.5059C30.8626 81.5059 30.359 81.7542 29.9762 82.251C29.5934 82.7477 29.402 83.4587 29.402 84.3838ZM35.8148 84.2334C35.8148 83.5088 35.9561 82.8571 36.2387 82.2783C36.5258 81.6995 36.9223 81.2529 37.4281 80.9385C37.9385 80.624 38.5196 80.4668 39.1713 80.4668C40.1784 80.4668 40.9919 80.8154 41.6117 81.5127C42.2361 82.21 42.5482 83.1374 42.5482 84.2949V84.3838C42.5482 85.1038 42.4092 85.751 42.1312 86.3252C41.8578 86.8949 41.4636 87.3392 40.9486 87.6582C40.4382 87.9772 39.8503 88.1367 39.185 88.1367C38.1824 88.1367 37.3689 87.7881 36.7445 87.0908C36.1247 86.3936 35.8148 85.4707 35.8148 84.3223V84.2334ZM37.0863 84.3838C37.0863 85.2041 37.2755 85.8626 37.6537 86.3594C38.0365 86.8561 38.5469 87.1045 39.185 87.1045C39.8275 87.1045 40.338 86.8538 40.7162 86.3525C41.0945 85.8467 41.2836 85.1403 41.2836 84.2334C41.2836 83.4222 41.0899 82.766 40.7025 82.2646C40.3197 81.7588 39.8093 81.5059 39.1713 81.5059C38.5469 81.5059 38.0434 81.7542 37.6605 82.251C37.2777 82.7477 37.0863 83.4587 37.0863 84.3838ZM43.5266 84.2402C43.5266 83.1055 43.7954 82.194 44.3332 81.5059C44.871 80.8132 45.5751 80.4668 46.4455 80.4668C47.3114 80.4668 47.9973 80.763 48.5031 81.3555V77.5H49.7678V88H48.6057L48.5441 87.207C48.0383 87.8268 47.3342 88.1367 46.4318 88.1367C45.5751 88.1367 44.8755 87.7858 44.3332 87.084C43.7954 86.3822 43.5266 85.4661 43.5266 84.3359V84.2402ZM44.7912 84.3838C44.7912 85.2223 44.9644 85.8786 45.3107 86.3525C45.6571 86.8265 46.1356 87.0635 46.7463 87.0635C47.5484 87.0635 48.134 86.7035 48.5031 85.9834V82.5859C48.1249 81.8887 47.5438 81.54 46.76 81.54C46.1402 81.54 45.6571 81.7793 45.3107 82.2578C44.9644 82.7363 44.7912 83.445 44.7912 84.3838Z" fill="black"/>
</svg>
