<svg width="204" height="20" viewBox="0 0 204 20" fill="none" xmlns="http://www.w3.org/2000/svg">
<g clip-path="url(#clip0_7_830)">
<path d="M15.9211 3.42484C14.7073 1.33015 12.5514 0.0504272 10.1539 0.001521C10.0516 -0.000588379 9.94856 -0.000588379 9.84618 0.001521C7.44876 0.0504272 5.29282 1.33015 4.07899 3.42484C2.83829 5.56594 2.80434 8.13781 3.98817 10.3046L8.94766 19.3823C8.94989 19.3863 8.95212 19.3903 8.95442 19.3943C9.17262 19.7736 9.56352 20 10.0001 20C10.4367 20 10.8276 19.7735 11.0457 19.3943C11.0481 19.3903 11.0503 19.3863 11.0525 19.3823L16.012 10.3046C17.1957 8.13781 17.1618 5.56594 15.9211 3.42484ZM10 9.06246C8.44922 9.06246 7.18755 7.80078 7.18755 6.24996C7.18755 4.69914 8.44922 3.43746 10 3.43746C11.5509 3.43746 12.8125 4.69914 12.8125 6.24996C12.8125 7.80078 11.5509 9.06246 10 9.06246Z" fill="black"/>
</g>
<path d="M34.8633 10.25C34.6367 10.5195 34.3652 10.7363 34.0488 10.9004C33.7363 11.0645 33.3926 11.1465 33.0176 11.1465C32.5254 11.1465 32.0957 11.0254 31.7285 10.7832C31.3652 10.541 31.084 10.2012 30.8848 9.76367C30.6855 9.32227 30.5859 8.83594 30.5859 8.30469C30.5859 7.73438 30.6934 7.2207 30.9082 6.76367C31.127 6.30664 31.4355 5.95703 31.834 5.71484C32.2324 5.47266 32.6973 5.35156 33.2285 5.35156C34.0723 5.35156 34.7363 5.66797 35.2207 6.30078C35.709 6.92969 35.9531 7.78906 35.9531 8.87891V9.19531C35.9531 10.8555 35.625 12.0684 34.9688 12.834C34.3125 13.5957 33.3223 13.9863 31.998 14.0059H31.7871V13.0918H32.0156C32.9102 13.0762 33.5977 12.8438 34.0781 12.3945C34.5586 11.9414 34.8203 11.2266 34.8633 10.25ZM33.1934 10.25C33.5566 10.25 33.8906 10.1387 34.1953 9.91602C34.5039 9.69336 34.7285 9.41797 34.8691 9.08984V8.65625C34.8691 7.94531 34.7148 7.36719 34.4062 6.92188C34.0977 6.47656 33.707 6.25391 33.2344 6.25391C32.7578 6.25391 32.375 6.4375 32.0859 6.80469C31.7969 7.16797 31.6523 7.64844 31.6523 8.24609C31.6523 8.82812 31.791 9.30859 32.0684 9.6875C32.3496 10.0625 32.7246 10.25 33.1934 10.25ZM41.9449 11.3105L42.109 12.4355L42.3492 11.4219L44.0367 5.46875H44.9859L46.6324 11.4219L46.8668 12.4531L47.0484 11.3047L48.3727 5.46875H49.5035L47.4352 14H46.4098L44.652 7.7832L44.5172 7.13281L44.3824 7.7832L42.5602 14H41.5348L39.4723 5.46875H40.5973L41.9449 11.3105ZM52.7309 14.1172C51.8715 14.1172 51.1723 13.8359 50.6332 13.2734C50.0941 12.707 49.8246 11.9512 49.8246 11.0059V10.8066C49.8246 10.1777 49.9438 9.61719 50.182 9.125C50.4242 8.62891 50.7602 8.24219 51.1898 7.96484C51.6234 7.68359 52.0922 7.54297 52.5961 7.54297C53.4203 7.54297 54.0609 7.81445 54.518 8.35742C54.975 8.90039 55.2035 9.67773 55.2035 10.6895V11.1406H50.9086C50.9242 11.7656 51.1059 12.2715 51.4535 12.6582C51.8051 13.041 52.2504 13.2324 52.7895 13.2324C53.1723 13.2324 53.4965 13.1543 53.7621 12.998C54.0277 12.8418 54.2602 12.6348 54.4594 12.377L55.1215 12.8926C54.5902 13.709 53.7934 14.1172 52.7309 14.1172ZM52.5961 8.43359C52.1586 8.43359 51.7914 8.59375 51.4945 8.91406C51.1977 9.23047 51.0141 9.67578 50.9438 10.25H54.1195V10.168C54.0883 9.61719 53.9398 9.19141 53.6742 8.89062C53.4086 8.58594 53.0492 8.43359 52.5961 8.43359ZM59.8547 12.3184C59.8547 12.0254 59.7434 11.7988 59.5207 11.6387C59.302 11.4746 58.9172 11.334 58.3664 11.2168C57.8195 11.0996 57.384 10.959 57.0598 10.7949C56.7395 10.6309 56.5012 10.4355 56.3449 10.209C56.1926 9.98242 56.1164 9.71289 56.1164 9.40039C56.1164 8.88086 56.3352 8.44141 56.7727 8.08203C57.2141 7.72266 57.7766 7.54297 58.4602 7.54297C59.1789 7.54297 59.7609 7.72852 60.2062 8.09961C60.6555 8.4707 60.8801 8.94531 60.8801 9.52344H59.7902C59.7902 9.22656 59.6633 8.9707 59.4094 8.75586C59.1594 8.54102 58.843 8.43359 58.4602 8.43359C58.0656 8.43359 57.757 8.51953 57.5344 8.69141C57.3117 8.86328 57.2004 9.08789 57.2004 9.36523C57.2004 9.62695 57.3039 9.82422 57.5109 9.95703C57.718 10.0898 58.091 10.2168 58.6301 10.3379C59.173 10.459 59.6125 10.6035 59.9484 10.7715C60.2844 10.9395 60.5324 11.1426 60.6926 11.3809C60.8566 11.6152 60.9387 11.9023 60.9387 12.2422C60.9387 12.8086 60.7121 13.2637 60.259 13.6074C59.8059 13.9473 59.218 14.1172 58.4953 14.1172C57.9875 14.1172 57.5383 14.0273 57.1477 13.8477C56.757 13.668 56.4504 13.418 56.2277 13.0977C56.009 12.7734 55.8996 12.4238 55.8996 12.0488H56.9836C57.0031 12.4121 57.1477 12.7012 57.4172 12.916C57.6906 13.127 58.05 13.2324 58.4953 13.2324C58.9055 13.2324 59.2336 13.1504 59.4797 12.9863C59.7297 12.8184 59.8547 12.5957 59.8547 12.3184ZM63.5215 6.125V7.66016H64.7051V8.49805H63.5215V12.4297C63.5215 12.6836 63.5742 12.875 63.6797 13.0039C63.7852 13.1289 63.9648 13.1914 64.2188 13.1914C64.3438 13.1914 64.5156 13.168 64.7344 13.1211V14C64.4492 14.0781 64.1719 14.1172 63.9023 14.1172C63.418 14.1172 63.0527 13.9707 62.8066 13.6777C62.5605 13.3848 62.4375 12.9688 62.4375 12.4297V8.49805H61.2832V7.66016H62.4375V6.125H63.5215ZM72.818 11.1348H74.0016V12.0195H72.818V14H71.7281V12.0195H67.8434V11.3809L71.6637 5.46875H72.818V11.1348ZM69.0738 11.1348H71.7281V6.95117L71.5992 7.18555L69.0738 11.1348ZM78.934 5.46289V6.38281H78.7348C77.891 6.39844 77.2191 6.64844 76.7191 7.13281C76.2191 7.61719 75.9301 8.29883 75.852 9.17773C76.3012 8.66211 76.9145 8.4043 77.6918 8.4043C78.434 8.4043 79.0258 8.66602 79.4672 9.18945C79.9125 9.71289 80.1352 10.3887 80.1352 11.2168C80.1352 12.0957 79.8949 12.7988 79.4145 13.3262C78.9379 13.8535 78.2973 14.1172 77.4926 14.1172C76.6762 14.1172 76.0141 13.8047 75.5062 13.1797C74.9984 12.5508 74.7445 11.7422 74.7445 10.7539V10.3379C74.7445 8.76758 75.0785 7.56836 75.7465 6.74023C76.4184 5.9082 77.4164 5.48242 78.7406 5.46289H78.934ZM77.5102 9.30664C77.1391 9.30664 76.7973 9.41797 76.4848 9.64062C76.1723 9.86328 75.9555 10.1426 75.8344 10.4785V10.877C75.8344 11.5801 75.9926 12.1465 76.309 12.5762C76.6254 13.0059 77.0199 13.2207 77.4926 13.2207C77.9809 13.2207 78.3637 13.041 78.641 12.6816C78.9223 12.3223 79.0629 11.8516 79.0629 11.2695C79.0629 10.6836 78.9203 10.2109 78.6352 9.85156C78.3539 9.48828 77.9789 9.30664 77.5102 9.30664ZM89.7363 6.39453H86.9941V14H85.875V6.39453H83.1387V5.46875H89.7363V6.39453ZM91.616 8.42773C92.0965 7.83789 92.7215 7.54297 93.491 7.54297C94.8309 7.54297 95.5066 8.29883 95.5184 9.81055V14H94.4344V9.80469C94.4305 9.34766 94.325 9.00977 94.118 8.79102C93.9148 8.57227 93.5965 8.46289 93.1629 8.46289C92.8113 8.46289 92.5027 8.55664 92.2371 8.74414C91.9715 8.93164 91.7645 9.17773 91.616 9.48242V14H90.532V5H91.616V8.42773ZM102.202 10.1973C101.237 9.91992 100.534 9.58008 100.092 9.17773C99.6547 8.77148 99.4359 8.27148 99.4359 7.67773C99.4359 7.00586 99.7035 6.45117 100.239 6.01367C100.778 5.57227 101.477 5.35156 102.336 5.35156C102.922 5.35156 103.444 5.46484 103.901 5.69141C104.362 5.91797 104.717 6.23047 104.967 6.62891C105.221 7.02734 105.348 7.46289 105.348 7.93555H104.217C104.217 7.41992 104.053 7.01562 103.725 6.72266C103.397 6.42578 102.934 6.27734 102.336 6.27734C101.782 6.27734 101.348 6.40039 101.036 6.64648C100.727 6.88867 100.573 7.22656 100.573 7.66016C100.573 8.00781 100.719 8.30273 101.012 8.54492C101.309 8.7832 101.811 9.00195 102.518 9.20117C103.229 9.40039 103.784 9.62109 104.182 9.86328C104.584 10.1016 104.881 10.3809 105.073 10.7012C105.268 11.0215 105.366 11.3984 105.366 11.832C105.366 12.5234 105.096 13.0781 104.557 13.4961C104.018 13.9102 103.297 14.1172 102.395 14.1172C101.809 14.1172 101.262 14.0059 100.754 13.7832C100.246 13.5566 99.8539 13.248 99.5766 12.8574C99.3031 12.4668 99.1664 12.0234 99.1664 11.5273H100.297C100.297 12.043 100.487 12.4512 100.866 12.752C101.248 13.0488 101.758 13.1973 102.395 13.1973C102.989 13.1973 103.444 13.0762 103.76 12.834C104.077 12.5918 104.235 12.2617 104.235 11.8438C104.235 11.4258 104.088 11.1035 103.795 10.877C103.502 10.6465 102.971 10.4199 102.202 10.1973ZM107.814 6.125V7.66016H108.997V8.49805H107.814V12.4297C107.814 12.6836 107.866 12.875 107.972 13.0039C108.077 13.1289 108.257 13.1914 108.511 13.1914C108.636 13.1914 108.808 13.168 109.027 13.1211V14C108.741 14.0781 108.464 14.1172 108.195 14.1172C107.71 14.1172 107.345 13.9707 107.099 13.6777C106.853 13.3848 106.73 12.9688 106.73 12.4297V8.49805H105.575V7.66016H106.73V6.125H107.814ZM113.033 8.63281C112.869 8.60547 112.691 8.5918 112.5 8.5918C111.789 8.5918 111.307 8.89453 111.053 9.5V14H109.969V7.66016H111.023L111.041 8.39258C111.396 7.82617 111.9 7.54297 112.553 7.54297C112.764 7.54297 112.924 7.57031 113.033 7.625V8.63281ZM116.249 14.1172C115.389 14.1172 114.69 13.8359 114.151 13.2734C113.612 12.707 113.343 11.9512 113.343 11.0059V10.8066C113.343 10.1777 113.462 9.61719 113.7 9.125C113.942 8.62891 114.278 8.24219 114.708 7.96484C115.141 7.68359 115.61 7.54297 116.114 7.54297C116.938 7.54297 117.579 7.81445 118.036 8.35742C118.493 8.90039 118.721 9.67773 118.721 10.6895V11.1406H114.427C114.442 11.7656 114.624 12.2715 114.971 12.6582C115.323 13.041 115.768 13.2324 116.307 13.2324C116.69 13.2324 117.014 13.1543 117.28 12.998C117.546 12.8418 117.778 12.6348 117.977 12.377L118.639 12.8926C118.108 13.709 117.311 14.1172 116.249 14.1172ZM116.114 8.43359C115.677 8.43359 115.309 8.59375 115.012 8.91406C114.716 9.23047 114.532 9.67578 114.462 10.25H117.637V10.168C117.606 9.61719 117.458 9.19141 117.192 8.89062C116.927 8.58594 116.567 8.43359 116.114 8.43359ZM122.312 14.1172C121.453 14.1172 120.754 13.8359 120.214 13.2734C119.675 12.707 119.406 11.9512 119.406 11.0059V10.8066C119.406 10.1777 119.525 9.61719 119.763 9.125C120.005 8.62891 120.341 8.24219 120.771 7.96484C121.205 7.68359 121.673 7.54297 122.177 7.54297C123.002 7.54297 123.642 7.81445 124.099 8.35742C124.556 8.90039 124.785 9.67773 124.785 10.6895V11.1406H120.49C120.505 11.7656 120.687 12.2715 121.035 12.6582C121.386 13.041 121.832 13.2324 122.371 13.2324C122.754 13.2324 123.078 13.1543 123.343 12.998C123.609 12.8418 123.841 12.6348 124.041 12.377L124.703 12.8926C124.171 13.709 123.375 14.1172 122.312 14.1172ZM122.177 8.43359C121.74 8.43359 121.373 8.59375 121.076 8.91406C120.779 9.23047 120.595 9.67578 120.525 10.25H123.701V10.168C123.67 9.61719 123.521 9.19141 123.255 8.89062C122.99 8.58594 122.63 8.43359 122.177 8.43359ZM127.215 6.125V7.66016H128.399V8.49805H127.215V12.4297C127.215 12.6836 127.268 12.875 127.373 13.0039C127.479 13.1289 127.659 13.1914 127.912 13.1914C128.037 13.1914 128.209 13.168 128.428 13.1211V14C128.143 14.0781 127.866 14.1172 127.596 14.1172C127.112 14.1172 126.746 13.9707 126.5 13.6777C126.254 13.3848 126.131 12.9688 126.131 12.4297V8.49805H124.977V7.66016H126.131V6.125H127.215ZM129.335 15.6992L128.72 15.2773C129.087 14.7656 129.279 14.2383 129.294 13.6953V12.7168H130.355V13.5664C130.355 13.9609 130.257 14.3555 130.062 14.75C129.87 15.1445 129.628 15.4609 129.335 15.6992ZM140.829 14H139.698L135.403 7.42578V14H134.272V5.46875H135.403L139.71 12.0723V5.46875H140.829V14ZM144.988 14.1172C144.129 14.1172 143.429 13.8359 142.89 13.2734C142.351 12.707 142.082 11.9512 142.082 11.0059V10.8066C142.082 10.1777 142.201 9.61719 142.439 9.125C142.681 8.62891 143.017 8.24219 143.447 7.96484C143.88 7.68359 144.349 7.54297 144.853 7.54297C145.677 7.54297 146.318 7.81445 146.775 8.35742C147.232 8.90039 147.461 9.67773 147.461 10.6895V11.1406H143.166C143.181 11.7656 143.363 12.2715 143.711 12.6582C144.062 13.041 144.507 13.2324 145.046 13.2324C145.429 13.2324 145.754 13.1543 146.019 12.998C146.285 12.8418 146.517 12.6348 146.716 12.377L147.379 12.8926C146.847 13.709 146.05 14.1172 144.988 14.1172ZM144.853 8.43359C144.416 8.43359 144.048 8.59375 143.752 8.91406C143.455 9.23047 143.271 9.67578 143.201 10.25H146.377V10.168C146.345 9.61719 146.197 9.19141 145.931 8.89062C145.666 8.58594 145.306 8.43359 144.853 8.43359ZM154.034 12.5059L155.252 7.66016H156.336L154.491 14H153.612L152.071 9.19531L150.571 14H149.692L147.852 7.66016H148.93L150.178 12.4062L151.655 7.66016H152.528L154.034 12.5059ZM162.592 9.75195L164.818 5.46875H166.096L163.154 10.8184V14H162.029V10.8184L159.088 5.46875H160.377L162.592 9.75195ZM166.054 10.7715C166.054 10.1504 166.175 9.5918 166.417 9.0957C166.663 8.59961 167.003 8.2168 167.436 7.94727C167.874 7.67773 168.372 7.54297 168.93 7.54297C169.794 7.54297 170.491 7.8418 171.022 8.43945C171.557 9.03711 171.825 9.83203 171.825 10.8242V10.9004C171.825 11.5176 171.706 12.0723 171.468 12.5645C171.233 13.0527 170.895 13.4336 170.454 13.707C170.016 13.9805 169.512 14.1172 168.942 14.1172C168.083 14.1172 167.386 13.8184 166.85 13.2207C166.319 12.623 166.054 11.832 166.054 10.8477V10.7715ZM167.143 10.9004C167.143 11.6035 167.305 12.168 167.63 12.5938C167.958 13.0195 168.395 13.2324 168.942 13.2324C169.493 13.2324 169.93 13.0176 170.255 12.5879C170.579 12.1543 170.741 11.5488 170.741 10.7715C170.741 10.0762 170.575 9.51367 170.243 9.08398C169.915 8.65039 169.477 8.43359 168.93 8.43359C168.395 8.43359 167.964 8.64648 167.636 9.07227C167.307 9.49805 167.143 10.1074 167.143 10.9004ZM175.949 8.63281C175.785 8.60547 175.607 8.5918 175.416 8.5918C174.705 8.5918 174.222 8.89453 173.968 9.5V14H172.884V7.66016H173.939L173.957 8.39258C174.312 7.82617 174.816 7.54297 175.468 7.54297C175.679 7.54297 175.839 7.57031 175.949 7.625V8.63281ZM178.42 11.0645L177.741 11.7734V14H176.657V5H177.741V10.4434L178.321 9.74609L180.295 7.66016H181.614L179.147 10.3086L181.901 14H180.629L178.42 11.0645ZM191.555 11.293C191.449 12.1953 191.115 12.8926 190.553 13.3848C189.994 13.873 189.25 14.1172 188.32 14.1172C187.312 14.1172 186.504 13.7559 185.895 13.0332C185.289 12.3105 184.986 11.3438 184.986 10.1328V9.3125C184.986 8.51953 185.127 7.82227 185.408 7.2207C185.693 6.61914 186.096 6.1582 186.615 5.83789C187.135 5.51367 187.736 5.35156 188.42 5.35156C189.326 5.35156 190.053 5.60547 190.6 6.11328C191.146 6.61719 191.465 7.31641 191.555 8.21094H190.424C190.326 7.53125 190.113 7.03906 189.785 6.73438C189.461 6.42969 189.006 6.27734 188.42 6.27734C187.701 6.27734 187.137 6.54297 186.727 7.07422C186.32 7.60547 186.117 8.36133 186.117 9.3418V10.168C186.117 11.0938 186.311 11.8301 186.697 12.377C187.084 12.9238 187.625 13.1973 188.32 13.1973C188.945 13.1973 189.424 13.0566 189.756 12.7754C190.092 12.4902 190.314 11.9961 190.424 11.293H191.555ZM193.804 14H192.72V7.66016H193.804V14ZM192.632 5.97852C192.632 5.80273 192.684 5.6543 192.79 5.5332C192.899 5.41211 193.059 5.35156 193.27 5.35156C193.481 5.35156 193.641 5.41211 193.751 5.5332C193.86 5.6543 193.915 5.80273 193.915 5.97852C193.915 6.1543 193.86 6.30078 193.751 6.41797C193.641 6.53516 193.481 6.59375 193.27 6.59375C193.059 6.59375 192.899 6.53516 192.79 6.41797C192.684 6.30078 192.632 6.1543 192.632 5.97852ZM196.714 6.125V7.66016H197.898V8.49805H196.714V12.4297C196.714 12.6836 196.767 12.875 196.873 13.0039C196.978 13.1289 197.158 13.1914 197.412 13.1914C197.537 13.1914 197.709 13.168 197.927 13.1211V14C197.642 14.0781 197.365 14.1172 197.095 14.1172C196.611 14.1172 196.246 13.9707 196 13.6777C195.754 13.3848 195.63 12.9688 195.63 12.4297V8.49805H194.476V7.66016H195.63V6.125H196.714ZM200.944 12.4121L202.42 7.66016H203.58L201.032 14.9785C200.637 16.0332 200.01 16.5605 199.151 16.5605L198.946 16.543L198.541 16.4668V15.5879L198.834 15.6113C199.202 15.6113 199.487 15.5371 199.69 15.3887C199.897 15.2402 200.067 14.9688 200.2 14.5742L200.44 13.9297L198.178 7.66016H199.362L200.944 12.4121Z" fill="black"/>
<defs>
<clipPath id="clip0_7_830">
<rect width="20" height="20" fill="white"/>
</clipPath>
</defs>
</svg>
