<svg width="54" height="91" viewBox="0 0 54 91" fill="none" xmlns="http://www.w3.org/2000/svg">
<rect width="70" height="70" rx="20" fill="#ECF0F1"/>
<path d="M40.4754 34.0431C40.4754 30.0616 36.9736 26.8224 32.6692 26.8224C28.3649 26.8224 24.863 30.0616 24.863 34.0431C24.863 38.0247 28.3649 41.2639 32.6692 41.2639C36.9736 41.2639 40.4754 38.0247 40.4754 34.0431ZM25.7419 34.0431C25.7419 30.5462 28.8495 27.7013 32.6692 27.7013C36.489 27.7013 39.5966 30.5462 39.5966 34.0431C39.5966 37.5401 36.489 40.385 32.6692 40.385C28.8495 40.385 25.7419 37.54 25.7419 34.0431Z" fill="black"/>
<path d="M33.6804 37.6385C33.9279 37.6798 34.173 37.7003 34.414 37.7003C35.3442 37.7003 36.2123 37.3957 36.9122 36.8138C38.0883 35.8359 38.761 34.4981 38.7118 33.2351C38.6716 32.2044 38.1569 31.3106 37.2234 30.6502C35.6668 29.5491 34.4314 30.6305 33.4387 31.4994C32.8242 32.0373 32.2438 32.5454 31.6618 32.5752C30.9686 32.6108 30.5944 32.407 30.1985 32.1912C29.65 31.8924 29.0283 31.5536 27.7876 31.9657C27.7831 31.9673 27.779 31.9695 27.7748 31.9717C27.3007 32.1061 26.6107 32.5166 26.6237 33.7665C26.6337 34.7446 27.0422 35.5552 27.8049 36.1108C28.5454 36.6502 29.5002 36.8624 30.3853 36.8624C30.8265 36.8624 31.2495 36.809 31.621 36.7177C32.1937 37.1837 32.9092 37.5097 33.6804 37.6385ZM31.7069 33.4529C32.5933 33.4074 33.3174 32.7736 34.0177 32.1607C35.076 31.2343 35.7726 30.7003 36.716 31.3677C37.4281 31.8714 37.8041 32.5112 37.8336 33.2694C37.8717 34.2464 37.3034 35.3457 36.3503 36.1381C35.6687 36.7048 34.7721 36.9298 33.8252 36.7717C32.8455 36.6081 31.9847 36.0566 31.5226 35.2965L31.4028 35.099C30.9702 34.386 30.5475 33.6891 30.098 33.1307C30.4872 33.3205 30.9798 33.4903 31.7069 33.4529ZM28.3225 35.4003C27.7856 35.0092 27.5098 34.4565 27.5026 33.7573C27.4945 32.9789 27.8491 32.8558 28.0314 32.8122C28.9163 32.6957 29.7594 34.0844 30.6514 35.5548L30.7717 35.753C30.8136 35.822 30.8586 35.8892 30.9053 35.9554C30.0429 36.0545 29.0245 35.9118 28.3225 35.4003Z" fill="black"/>
<path d="M47.55 44.3602C47.4997 43.069 46.8531 41.9479 45.6802 41.1181C44.8105 40.5028 43.9422 40.3813 43.0259 40.7466C42.8163 40.8301 42.613 40.9366 42.4145 41.0584C42.786 35.3574 42.702 29.5873 42.1641 23.8882C42.331 23.6205 42.6559 23.0187 42.8595 22.1175C42.9798 21.5849 42.7532 21.0611 42.2822 20.783C41.8185 20.5092 41.2595 20.5627 40.8581 20.9192C40.6508 21.1033 40.4547 21.2174 40.1185 21.2174C39.6772 21.2174 39.4705 21.0148 39.1844 20.7343C38.8506 20.4072 38.4354 20 37.635 20C36.8346 20 36.4194 20.4072 36.0857 20.7344C35.7998 21.0149 35.5931 21.2174 35.1518 21.2174C34.7104 21.2174 34.5038 21.0148 34.2178 20.7343C33.8841 20.4072 33.4688 20 32.6685 20C31.8682 20 31.4529 20.4072 31.1193 20.7344C30.8332 21.0149 30.6266 21.2175 30.1853 21.2175C29.7441 21.2175 29.5375 21.0149 29.2515 20.7345C28.9178 20.4072 28.5025 20 27.7022 20C26.902 20 26.4868 20.4072 26.1531 20.7344C25.8672 21.0149 25.6606 21.2174 25.2194 21.2174C24.8833 21.2174 24.6873 21.1033 24.48 20.9192C24.0786 20.5626 23.5198 20.5092 23.0561 20.7829C22.5851 21.061 22.3586 21.5847 22.4789 22.1172C22.6822 23.0175 23.0067 23.619 23.1738 23.8872C23.0816 24.862 23.0019 25.8418 22.9378 26.8033C22.9217 27.0455 23.1049 27.2549 23.347 27.271C23.5893 27.2872 23.7986 27.104 23.8148 26.8618C23.8752 25.9559 23.949 25.0334 24.0347 24.1144C29.7661 23.4234 35.572 23.4233 41.3035 24.1144C41.848 29.9674 41.9091 35.8952 41.4867 41.7423C41.3041 41.8948 41.1242 42.052 40.946 42.208L40.8233 42.3153C40.6406 42.4749 40.6217 42.7525 40.7814 42.9353C40.941 43.1181 41.2186 43.1369 41.4014 42.9772L41.5249 42.8693C42.9405 41.6299 43.874 40.9169 45.1727 41.8355C46.1276 42.511 46.632 43.372 46.6719 44.3943C46.7227 45.697 45.9701 47.1582 44.7079 48.2078C43.7971 48.9649 42.6007 49.2658 41.3389 49.0549C40.0358 48.8372 38.89 48.1018 38.2735 47.0876L38.117 46.8299C37.4131 45.6698 36.7297 44.5434 35.9764 43.7758C36.0459 43.8122 36.1164 43.8506 36.1891 43.8903C36.7439 44.1925 37.4345 44.5686 38.6148 44.5082C39.0434 44.4863 39.4735 44.3499 39.9298 44.0914C40.141 43.9717 40.2152 43.7036 40.0955 43.4924C39.9759 43.2813 39.7079 43.2071 39.4966 43.3267C39.162 43.5163 38.8588 43.6157 38.5698 43.6306C37.6369 43.6784 37.138 43.4064 36.6097 43.1186C35.89 42.7264 35.1459 42.3209 33.5948 42.8362C33.5886 42.8383 33.5828 42.8411 33.5773 42.8443C32.6382 43.1048 32.3134 43.8496 32.2154 44.4912C29.4983 44.4735 26.75 44.2992 24.0347 43.9717C23.5595 38.8629 23.451 33.6902 23.7125 28.5916C23.7249 28.3493 23.5385 28.1427 23.2962 28.1302C23.0534 28.1179 22.8472 28.3042 22.8348 28.5466C22.5678 33.7529 22.6839 39.0352 23.1787 44.25C23.0129 44.5141 22.6839 45.1185 22.4787 46.0278C22.3583 46.5604 22.5847 47.0842 23.0556 47.3623C23.5193 47.6362 24.0783 47.5827 24.4799 47.226C24.6871 47.0419 24.8831 46.9278 25.2195 46.9278C25.6611 46.9278 25.8677 47.1304 26.1538 47.4108C26.4875 47.7379 26.9029 48.145 27.7033 48.145C28.5033 48.145 28.9185 47.738 29.2521 47.4109C29.5382 47.1304 29.7449 46.9278 30.1864 46.9278C30.6275 46.9278 30.8341 47.1304 31.12 47.4107C31.4537 47.7378 31.8691 48.145 32.6695 48.145C33.0665 48.145 33.3636 48.0418 33.5863 47.9187C33.6084 47.9355 33.6295 47.953 33.652 47.9694C34.5859 48.6497 35.7914 48.9175 36.9102 48.9175C37.4954 48.9175 38.0562 48.8438 38.5427 48.718C39.2736 49.3281 40.1966 49.7552 41.1939 49.9218C41.5067 49.9741 41.8164 49.9999 42.1209 49.9999C43.2939 49.9999 44.3879 49.6165 45.2695 48.8837C46.7597 47.6447 47.6122 45.9537 47.55 44.3602ZM23.823 23.2553C23.6818 22.9953 23.4767 22.546 23.3361 21.9236C23.2833 21.69 23.4505 21.5707 23.503 21.5397C23.5666 21.5022 23.7323 21.4305 23.8964 21.5762C24.169 21.8183 24.5657 22.0963 25.2195 22.0963C26.0197 22.0963 26.4349 21.6891 26.7686 21.3619C27.0545 21.0814 27.2611 20.8788 27.7023 20.8788C28.1436 20.8788 28.3502 21.0815 28.6362 21.3619C28.9698 21.6891 29.3851 22.0963 30.1854 22.0963C30.9857 22.0963 31.401 21.6891 31.7347 21.3619C32.0207 21.0814 32.2273 20.8788 32.6686 20.8788C33.1099 20.8788 33.3166 21.0815 33.6026 21.3619C33.9363 21.6891 34.3516 22.0963 35.1519 22.0963C35.9522 22.0963 36.3674 21.6891 36.7011 21.3619C36.9871 21.0815 37.1937 20.8788 37.6351 20.8788C38.0764 20.8788 38.2831 21.0815 38.5692 21.3619C38.903 21.6891 39.3182 22.0963 40.1186 22.0963C40.7725 22.0963 41.1692 21.8184 41.4418 21.5763C41.606 21.4304 41.7718 21.5022 41.8354 21.5398C41.8879 21.5708 42.0552 21.6901 42.0023 21.9238C41.8617 22.5464 41.6564 22.9958 41.5155 23.2553C35.6439 22.5387 29.6944 22.5387 23.823 23.2553ZM31.7354 46.7832C31.4018 46.4561 30.9865 46.0491 30.1864 46.0491C29.3859 46.0491 28.9707 46.4562 28.637 46.7833C28.3511 47.0636 28.1444 47.2662 27.7033 47.2662C27.2618 47.2662 27.0551 47.0636 26.769 46.7832C26.4353 46.4561 26.0199 46.0491 25.2196 46.0491C24.5655 46.0491 24.1688 46.3269 23.8963 46.569C23.732 46.7149 23.5663 46.6433 23.5026 46.6057C23.4502 46.5747 23.2832 46.4555 23.3361 46.2216C23.4872 45.552 23.713 45.083 23.8537 44.8346C26.6219 45.1714 29.4243 45.3514 32.1951 45.37C32.2571 46.082 32.4963 46.7149 32.9029 47.244C32.8337 47.258 32.7568 47.2662 32.6697 47.2662C32.2282 47.2662 32.0214 47.0636 31.7354 46.7832ZM34.1696 47.2592C33.4408 46.7283 33.0663 45.979 33.0566 45.032C33.046 44.0147 33.4938 43.7693 33.8479 43.6816C35.0762 43.5149 36.1888 45.3465 37.3656 47.2859L37.5225 47.5443C37.612 47.6916 37.7107 47.8338 37.8174 47.9709C36.6313 48.1531 35.1639 47.9834 34.1696 47.2592Z" fill="black"/>
<path d="M44.9206 46.1292L44.8987 46.1421C44.6894 46.2648 44.6192 46.5341 44.742 46.7434C44.8238 46.8829 44.9706 46.9606 45.1215 46.9606C45.197 46.9606 45.2735 46.9412 45.3434 46.9002L45.3652 46.8874C45.5746 46.7646 45.6448 46.4954 45.522 46.286C45.3991 46.0766 45.13 46.0065 44.9206 46.1292Z" fill="black"/>
<path d="M45.7463 45.9428C45.8218 45.9428 45.8983 45.9233 45.9682 45.8824L45.9901 45.8695C46.1994 45.7468 46.2696 45.4775 46.1469 45.2682C46.0241 45.0588 45.7548 44.9886 45.5455 45.1114L45.5236 45.1242C45.3143 45.247 45.2441 45.5162 45.3669 45.7256C45.4486 45.8651 45.5955 45.9428 45.7463 45.9428Z" fill="black"/>
<path d="M44.3153 45.0958L44.2934 45.1087C44.084 45.2314 44.0138 45.5007 44.1366 45.71C44.2185 45.8495 44.3653 45.9272 44.5161 45.9272C44.5917 45.9272 44.6681 45.9078 44.738 45.8668L44.7599 45.854C44.9693 45.7312 45.0395 45.462 44.9166 45.2527C44.7938 45.0432 44.5247 44.9731 44.3153 45.0958Z" fill="black"/>
<path d="M21.1498 83.5635C20.0242 83.2399 19.2038 82.8434 18.6889 82.374C18.1785 81.9001 17.9232 81.3167 17.9232 80.624C17.9232 79.8402 18.2354 79.193 18.8598 78.6826C19.4887 78.1676 20.3044 77.9102 21.307 77.9102C21.9906 77.9102 22.599 78.0423 23.1322 78.3066C23.67 78.571 24.0847 78.9355 24.3764 79.4004C24.6726 79.8652 24.8207 80.3734 24.8207 80.9248H23.5014C23.5014 80.3232 23.31 79.8516 22.9271 79.5098C22.5443 79.1634 22.0043 78.9902 21.307 78.9902C20.6599 78.9902 20.154 79.1338 19.7895 79.4209C19.4294 79.7035 19.2494 80.0977 19.2494 80.6035C19.2494 81.0091 19.4203 81.3532 19.7621 81.6357C20.1085 81.9137 20.6941 82.1689 21.5189 82.4014C22.3484 82.6338 22.9955 82.8913 23.4604 83.1738C23.9298 83.4518 24.2761 83.7777 24.4994 84.1514C24.7273 84.5251 24.8412 84.9648 24.8412 85.4707C24.8412 86.2773 24.5268 86.9245 23.8979 87.4121C23.2689 87.8952 22.4281 88.1367 21.3754 88.1367C20.6918 88.1367 20.0538 88.0068 19.4613 87.7471C18.8689 87.4827 18.4109 87.1227 18.0873 86.667C17.7683 86.2113 17.6088 85.694 17.6088 85.1152H18.9281C18.9281 85.7168 19.1492 86.193 19.5912 86.5439C20.0378 86.8903 20.6326 87.0635 21.3754 87.0635C22.0681 87.0635 22.599 86.9222 22.9682 86.6396C23.3373 86.3571 23.5219 85.972 23.5219 85.4844C23.5219 84.9967 23.351 84.6208 23.0092 84.3564C22.6674 84.0876 22.0476 83.8232 21.1498 83.5635ZM27.2277 80.6035L27.2688 81.5332C27.8339 80.8223 28.5721 80.4668 29.4836 80.4668C31.0467 80.4668 31.8352 81.3486 31.8488 83.1123V88H30.5842V83.1055C30.5796 82.5723 30.4566 82.1781 30.215 81.9229C29.9781 81.6676 29.6066 81.54 29.1008 81.54C28.6906 81.54 28.3306 81.6494 28.0207 81.8682C27.7108 82.0869 27.4693 82.374 27.2961 82.7295V88H26.0314V80.6035H27.2277ZM38.0225 88C37.9495 87.8542 37.8903 87.5944 37.8447 87.2207C37.2568 87.8314 36.555 88.1367 35.7393 88.1367C35.0101 88.1367 34.4108 87.9316 33.9414 87.5215C33.4766 87.1068 33.2441 86.5827 33.2441 85.9492C33.2441 85.179 33.5358 84.582 34.1191 84.1582C34.707 83.7298 35.5319 83.5156 36.5938 83.5156H37.8242V82.9346C37.8242 82.4925 37.6921 82.1416 37.4277 81.8818C37.1634 81.6175 36.7738 81.4854 36.2588 81.4854C35.8076 81.4854 35.4294 81.5993 35.124 81.8271C34.8187 82.055 34.666 82.3307 34.666 82.6543H33.3945C33.3945 82.2852 33.5244 81.9297 33.7842 81.5879C34.0485 81.2415 34.404 80.9681 34.8506 80.7676C35.3018 80.5671 35.7962 80.4668 36.334 80.4668C37.1862 80.4668 37.8538 80.681 38.3369 81.1094C38.82 81.5332 39.0706 82.1188 39.0889 82.8662V86.2705C39.0889 86.9495 39.1755 87.4896 39.3486 87.8906V88H38.0225ZM35.9238 87.0361C36.3203 87.0361 36.6963 86.9336 37.0518 86.7285C37.4072 86.5234 37.6647 86.2568 37.8242 85.9287V84.4111H36.833C35.2835 84.4111 34.5088 84.8646 34.5088 85.7715C34.5088 86.168 34.641 86.4779 34.9053 86.7012C35.1696 86.9245 35.5091 87.0361 35.9238 87.0361ZM43.7381 87.1045C44.1893 87.1045 44.5835 86.9678 44.9207 86.6943C45.2579 86.4209 45.4448 86.0791 45.4813 85.6689H46.6775C46.6548 86.0928 46.5089 86.4961 46.24 86.8789C45.9712 87.2617 45.6111 87.5671 45.16 87.7949C44.7133 88.0228 44.2394 88.1367 43.7381 88.1367C42.7309 88.1367 41.9288 87.8018 41.3318 87.1318C40.7394 86.4574 40.4432 85.5368 40.4432 84.3701V84.1582C40.4432 83.4382 40.5753 82.7979 40.8396 82.2373C41.104 81.6768 41.4822 81.2415 41.9744 80.9316C42.4712 80.6217 43.0568 80.4668 43.7313 80.4668C44.5607 80.4668 45.2488 80.7152 45.7957 81.2119C46.3471 81.7087 46.6411 82.3535 46.6775 83.1465H45.4813C45.4448 82.668 45.2625 82.276 44.9344 81.9707C44.6108 81.6608 44.2098 81.5059 43.7313 81.5059C43.0887 81.5059 42.5896 81.7383 42.2342 82.2031C41.8833 82.6634 41.7078 83.3311 41.7078 84.2061V84.4453C41.7078 85.2975 41.8833 85.9538 42.2342 86.4141C42.5851 86.8743 43.0864 87.1045 43.7381 87.1045ZM49.8639 84.5752L49.0709 85.4023V88H47.8062V77.5H49.0709V83.8506L49.7477 83.0371L52.0514 80.6035H53.5895L50.7115 83.6934L53.9244 88H52.441L49.8639 84.5752Z" fill="black"/>
</svg>
